<?xml version="1.0" encoding="utf-8"?>
<!-- Generator: Adobe Illustrator 26.3.1, SVG Export Plug-In . SVG Version: 6.00 Build 0)  -->
<svg version="1.1" id="Layer_1" xmlns="http://www.w3.org/2000/svg" xmlns:xlink="http://www.w3.org/1999/xlink" x="0px" y="0px"
	 viewBox="0 0 180 60" style="enable-background:new 0 0 180 60;" xml:space="preserve">
<style type="text/css">
	.st0{fill-rule:evenodd;clip-rule:evenodd;fill:#2B2B2B;}
	.st1{fill:#2B2B2B;}
	.st2{fill:#FFBA07;}
</style>
<path class="st0" d="M43.2,30c0,5.2,3.6,9,9.1,9c3.8,0,7-2.2,7.9-5.5c0.1-0.2-0.1-0.4-0.3-0.4l-2.7-0.6c-0.2,0-0.4,0.1-0.4,0.2
	c-0.7,1.9-2.5,3-4.6,3c-3.1,0-5.2-2.2-5.5-5.4c0-0.1,0-0.1,0-0.2c0-0.2,0-0.4,0-0.6c0.3-3.2,2.4-5.3,5.5-5.3c2.1,0,3.8,1.1,4.6,2.9
	c0.1,0.2,0.3,0.3,0.4,0.2l2.7-0.7c0.2-0.1,0.3-0.2,0.3-0.4c-1-3.2-4.1-5.3-7.8-5.3C46.8,21,43.2,24.8,43.2,30L43.2,30z"/>
<path class="st1" d="M150.3,21.3c-0.2,0-0.4,0.2-0.4,0.4v16.6c0,0.2,0.2,0.4,0.4,0.4h2.7c0.2,0,0.4-0.2,0.4-0.4v-6.5
	c0-0.2,0.2-0.4,0.4-0.4h7.2c0.2,0,0.4,0.2,0.4,0.4v6.5c0,0.2,0.2,0.4,0.4,0.4h2.7c0.2,0,0.4-0.2,0.4-0.4V21.7c0-0.2-0.2-0.4-0.4-0.4
	h-2.7c-0.2,0-0.4,0.2-0.4,0.4v6.1c0,0.2-0.2,0.4-0.4,0.4h-7.2c-0.2,0-0.4-0.2-0.4-0.4v-6.1c0-0.2-0.2-0.4-0.4-0.4H150.3z"/>
<path class="st1" d="M133.9,21.3c-0.2,0-0.4,0.2-0.4,0.4v2.6c0,0.2,0.2,0.4,0.4,0.4h4.7c0.2,0,0.4,0.2,0.4,0.4v13.3
	c0,0.2,0.2,0.4,0.4,0.4h2.7c0.2,0,0.4-0.2,0.4-0.4V25c0-0.2,0.2-0.4,0.4-0.4h4.7c0.2,0,0.4-0.2,0.4-0.4v-2.6c0-0.2-0.2-0.4-0.4-0.4
	H133.9z"/>
<path class="st1" d="M124.6,21.3c-0.1,0-0.3,0.1-0.3,0.2l-6.7,16.6c-0.1,0.2,0.1,0.5,0.3,0.5h3c0.1,0,0.3-0.1,0.3-0.2l1.4-3.6
	c0.1-0.2,0.3-0.3,0.4-0.2c0.6,0.1,1.8,0.4,3.3,0.4c1.5,0,2.8-0.2,3.3-0.4c0.2,0,0.4,0.1,0.4,0.2l1.4,3.6c0.1,0.1,0.2,0.2,0.3,0.2h3
	c0.3,0,0.4-0.3,0.3-0.5l-6.8-16.6c-0.1-0.1-0.2-0.2-0.3-0.2H124.6z M128.6,30.9c0.1,0.2,0,0.4-0.2,0.5c-0.4,0.1-1.2,0.3-1.9,0.3
	c-0.8,0-1.5-0.2-1.9-0.3c-0.2-0.1-0.3-0.3-0.2-0.5l2-5c0.1-0.2,0.3-0.2,0.3,0L128.6,30.9z"/>
<path class="st1" d="M96.3,21.3c-0.2,0-0.4,0.2-0.4,0.4v16.6c0,0.2,0.2,0.4,0.4,0.4H99c0.2,0,0.4-0.2,0.4-0.4l0-9.4
	c0-0.2,0.3-0.3,0.3-0.1l4.1,9.7c0.1,0.1,0.2,0.2,0.3,0.2h3.1c0.1,0,0.3-0.1,0.3-0.2l4.1-9.7c0.1-0.2,0.3-0.1,0.3,0.1v9.5
	c0,0.2,0.2,0.4,0.4,0.4h2.7c0.2,0,0.4-0.2,0.4-0.4V21.7c0-0.2-0.2-0.4-0.4-0.4h-3.6c-0.1,0-0.3,0.1-0.3,0.2L106,34.3
	c-0.1,0.1-0.3,0.1-0.3,0l-5.4-12.7c-0.1-0.1-0.2-0.2-0.3-0.2H96.3z"/>
<path class="st1" d="M80.6,21.3c-0.2,0-0.4,0.2-0.4,0.4v16.6c0,0.2,0.2,0.4,0.4,0.4h11.7c0.2,0,0.4-0.2,0.4-0.4v-2.6
	c0-0.2-0.2-0.4-0.4-0.4H84c-0.2,0-0.4-0.2-0.4-0.4v-3.2c0-0.2,0.2-0.4,0.4-0.4h7.2c0.2,0,0.4-0.2,0.4-0.4v-2.6
	c0-0.2-0.2-0.4-0.4-0.4H84c-0.2,0-0.4-0.2-0.4-0.4V25c0-0.2,0.2-0.4,0.4-0.4h8.2c0.2,0,0.4-0.2,0.4-0.4v-2.6c0-0.2-0.2-0.4-0.4-0.4
	H80.6z"/>
<path class="st1" d="M62.7,21.3c-0.2,0-0.4,0.2-0.4,0.4l0,10c0,4.3,2.9,7.3,7.4,7.3c4.5,0,7.4-3,7.4-7.3l0-10c0-0.2-0.2-0.4-0.4-0.4
	H74c-0.2,0-0.4,0.2-0.4,0.4l0,10c0,2.5-1.4,4.1-3.9,4.1c-2.5,0-3.9-1.5-3.9-4.1l0-10c0-0.2-0.2-0.4-0.4-0.4H62.7z"/>
<path class="st2" d="M21.9,36.1c0.2,0.2,0.2,0.5,0,0.7c-1.8,1.6-4.1,2.3-5.2,2.5c-0.3,0.1-0.6-0.2-0.5-0.5c0.2-1.1,0.9-3.4,2.5-5.2
	c0.2-0.2,0.5-0.2,0.7,0L21.9,36.1z"/>
<path class="st0" d="M29.6,33.7c-0.1,0.1-0.1,0.2-0.1,0.2c0.1,2.2,0.1,3.1-1.6,4.8c-1.2,1.2-4.1,2.2-5.6,2.6
	c-0.3,0.1-0.6-0.3-0.4-0.6c1-1.4,2.6-4,1.2-5.4c-0.9-0.9-1.2-1.2-1.5-1.5c-0.3-0.3-0.6-0.6-1.5-1.5c-1.3-1.3-3.9,0.3-5.2,1.3
	c-0.3,0.2-0.7,0-0.6-0.4c0.4-1.6,1.4-4.4,2.6-5.5c1.7-1.7,2.6-1.7,4.8-1.6c0.1,0,0.2,0,0.2-0.1c1-0.8,8.4-6.8,14-7.3
	c0.5,0,1,0.4,0.9,0.9C36.3,25.2,30.4,32.7,29.6,33.7z M27.3,28.3c0.7,0.7,2.2,0.5,3.3-0.5c1-1,1.3-2.5,0.5-3.3
	c-0.7-0.7-2.2-0.5-3.3,0.5C26.8,26.1,26.6,27.5,27.3,28.3z"/>
</svg>
