<?xml version="1.0" encoding="utf-8"?>
<!-- Generator: Adobe Illustrator 26.3.1, SVG Export Plug-In . SVG Version: 6.00 Build 0)  -->
<svg version="1.1" id="Layer_1" xmlns="http://www.w3.org/2000/svg" xmlns:xlink="http://www.w3.org/1999/xlink" x="0px" y="0px"
	 viewBox="0 0 180 60" style="enable-background:new 0 0 180 60;" xml:space="preserve">
<style type="text/css">
	.st0{fill-rule:evenodd;clip-rule:evenodd;fill:#5F259F;}
</style>
<path class="st0" d="M24.9,35.7c1.8,3.3,4.6,5.2,7.7,5.5c2.1,0,2.7-0.4,2.8-2c0-0.5,0-0.9,0-1.4c-0.1-1-0.5-1.8-1.6-2.1
	c-0.3-0.1-0.5-0.2-0.8-0.3h0h0h0l0,0c-0.1,0-0.2-0.1-0.3-0.1c-1.9-0.7-3-2-3.5-4c-0.6-2.4-0.5-4.8-0.1-7.3c0.2-1,0.7-1.6,1.7-1.8
	c0,0,0.1,0,0.1,0h0c0,0,0.1,0,0.1,0l0.5-0.1c0.8-0.1,1.7-0.2,2.5-0.3c0.7-0.1,0.9-0.3,1-0.9c0-0.5,0-1,0-1.5
	c-0.1-0.8-0.5-1.3-1.3-1.3c-0.7-0.1-1.5-0.1-2.2,0.1c-3.9,0.8-6.6,3-7.6,6.9c-0.5,1.8-0.5,3.6-0.3,5.5C23.7,32.4,24,34.1,24.9,35.7z
	 M38.1,29.3l0.6,2.3c0,0.1,0,0.1,0,0.2c0,0.1-0.1,0.1-0.1,0.1c0,0-0.1,0.1-0.2,0.1c-0.1,0-0.1,0-0.2,0l-2.1-1.1c0,0,0,0-0.1,0
	c0,0,0,0-0.1,0l-2,1.2c-0.1,0-0.1,0-0.2,0c-0.1,0-0.1,0-0.2-0.1c0,0-0.1-0.1-0.1-0.1c0-0.1,0-0.1,0-0.2l0.6-2.3c0,0,0,0,0-0.1
	c0,0,0,0,0-0.1l-1.9-1.6c0,0-0.1-0.1-0.1-0.1c0,0,0-0.1,0-0.1c0,0,0-0.1,0.1-0.1c0,0,0.1,0,0.1,0l2.4-0.3c0,0,0,0,0.1,0
	c0,0,0,0,0-0.1l0.9-2.3c0-0.1,0.1-0.1,0.1-0.1s0.1-0.1,0.2-0.1s0.1,0,0.2,0.1c0.1,0,0.1,0.1,0.1,0.1l0.9,2.3c0,0,0,0,0,0.1
	c0,0,0,0,0.1,0l2.4,0.3c0,0,0.1,0,0.1,0c0,0,0.1,0.1,0.1,0.1s0,0.1,0,0.1c0,0,0,0.1-0.1,0.1l-1.9,1.7C38.1,29.2,38.1,29.2,38.1,29.3
	C38.1,29.3,38.1,29.3,38.1,29.3z M39.7,41.2c3.2-0.3,5.9-2.2,7.7-5.5c0.9-1.6,1.1-3.3,1.3-5.1c0.1-1.8,0.2-3.7-0.3-5.5
	c-1.1-3.9-3.7-6.2-7.6-6.9c-0.7-0.1-1.5-0.1-2.2-0.1c-0.8,0.1-1.2,0.5-1.3,1.3c0,0.5,0,1,0,1.5c0.1,0.7,0.3,0.8,1,0.9
	c0.8,0.1,1.7,0.2,2.5,0.3v0l0.5,0.1c0,0,0.1,0,0.1,0c0,0,0.1,0,0.1,0c1,0.2,1.5,0.7,1.7,1.8c0.4,2.4,0.5,4.9-0.1,7.3
	c-0.5,2-1.6,3.3-3.5,4c-0.1,0-0.2,0.1-0.4,0.1l0,0c-0.3,0.1-0.5,0.2-0.8,0.3c-1,0.3-1.5,1-1.6,2.1c0,0.5,0,0.9,0,1.4
	C37,40.7,37.6,41.2,39.7,41.2z M63.3,22v-1H66v12.5c0,3.7-2.6,5.9-6.3,5.9c-3.5,0-6.1-2-6.4-4.9h2.8c0.2,1.5,1.6,2.5,3.6,2.5
	c2.1,0,3.6-1.3,3.6-3.5v-1.9c-1.1,0.8-2.5,1.3-4.1,1.3c-3.5,0-6.3-2.7-6.3-6c0-3.6,2.8-6.2,6.3-6.2C60.8,20.8,62.2,21.2,63.3,22z
	 M55.7,26.9c0,1.9,1.6,3.7,3.9,3.7c1.4,0,2.7-0.5,3.7-1.9V25c-0.9-1.3-2.3-1.9-3.7-1.9C57.3,23.1,55.7,24.7,55.7,26.9z M79.9,22v-1
	h2.7v12.1h-2.7v-1c-1.1,0.8-2.4,1.3-4,1.3c-3.5,0-6.3-2.8-6.3-6.4c0-3.5,2.8-6.4,6.3-6.4C77.5,20.8,78.8,21.2,79.9,22z M72.3,27.2
	c0,2.2,1.7,4,4,4c1.4,0,2.7-0.5,3.6-1.8V25c-0.9-1.3-2.2-1.8-3.6-1.8C74,23.2,72.3,25,72.3,27.2z M102.1,20.8
	c-1.8,0-3.2,0.6-4.5,1.8c-0.9-1.2-2.4-1.8-4.2-1.8c-1.7,0-2.8,0.5-3.7,1.3v-1H87v12.1h2.8v-8.3c0.9-1.2,2.1-1.7,3.4-1.7
	c1.6,0,2.8,0.8,2.8,2.9v7.1h2.7v-7.1c0-0.4,0-0.9-0.1-1.3c0.9-1.2,2.1-1.7,3.3-1.7c1.8,0,3,0.9,3,3.1v7h2.7v-7
	C107.6,22.7,105.4,20.8,102.1,20.8z M111.1,27.2c0-3.6,2.6-6.4,6.4-6.4c4.2,0,6.7,3.1,6.2,7.2h-9.8c0.3,1.8,1.5,3.2,3.8,3.2
	c1.2,0,2.2-0.4,2.7-1.1h3c-0.8,2.2-3,3.5-5.7,3.5C113.7,33.5,111.1,30.8,111.1,27.2z M121,26.1c-0.2-2-1.5-3-3.4-3
	c-2.1,0-3.3,1.3-3.6,3H121z M137.4,21.1h-10.9v2.2h6.9l-7.1,8.7v1.3h11.1V31h-7l7-8.5V21.1z M147.2,30.6l4.3-9.5h2.9l-8.3,18.2h-2.9
	l2.6-5.8l-6.4-12.4h3L147.2,30.6z"/>
</svg>
