<?xml version="1.0" encoding="utf-8"?>
<!-- Generator: Adobe Illustrator 26.3.1, SVG Export Plug-In . SVG Version: 6.00 Build 0)  -->
<svg version="1.1" id="Layer_1" xmlns="http://www.w3.org/2000/svg" xmlns:xlink="http://www.w3.org/1999/xlink" x="0px" y="0px"
	 viewBox="0 0 180 60" style="enable-background:new 0 0 180 60;" xml:space="preserve">
<style type="text/css">
	.st0{fill-rule:evenodd;clip-rule:evenodd;fill:#0D68B3;}
	.st1{fill-rule:evenodd;clip-rule:evenodd;fill:#F36B21;}
</style>
<g id="goibibo-logo" transform="translate(2962.207 7659.674)">
	<path id="Path_11594" class="st0" d="M-2887.4-7647.3c1.8,0,3.2,1.3,3.2,2.9c0,1.6-1.4,2.9-3.2,2.9c-1.8,0-3.2-1.3-3.2-2.9
		C-2890.6-7646-2889.1-7647.3-2887.4-7647.3z M-2890-7638.6h5.4v18.1h-5.4V-7638.6"/>
	<path id="Path_11595" class="st1" d="M-2919.8-7628.4c-0.6,6-8.6,5.6-7.5-2.3c0.3-2.4,2-4.7,4.9-4
		C-2920.1-7634-2919.5-7631.3-2919.8-7628.4z M-2919.9-7623.1c0.6,7-5.1,8.1-9.9,6.3c-0.6-0.2-1.2-0.6-1.8-0.8v4.6
		c0.5,0.7,3.4,1.1,4.5,1.1c4.8,0.3,9.5-0.9,11.7-5.2c1.4-2.9,1.1-6.7,1.1-10.2v-11.3h-5.6l0,2.1c-0.6-0.4-1.2-2.1-3.9-2.5
		c-1.8-0.3-3.7,0.1-5.2,1c-2.5,1.6-4.1,4.5-4.2,8.7c0,4.2,1.5,7.2,4.2,8.6c1.7,0.8,3.6,0.9,5.4,0.4
		C-2921.1-7621-2920.4-7622.6-2919.9-7623.1"/>
	<path id="Path_11596" class="st0" d="M-2837.9-7628.5c-0.1,1.2-0.6,2.3-1.3,3.2c-0.9,0.8-2.2,1.2-3.5,0.9c-2.9-0.7-2.9-3.9-2.7-6.2
		c0.2-2.5,2-4.6,4.8-4C-2838.2-7634.1-2837.5-7631.3-2837.9-7628.5z M-2851-7620.4h5.6v-2.1c0.4,0.2,1.1,2,3.9,2.5
		c1.8,0.3,3.7,0,5.3-1c2.5-1.6,4-4.5,4.1-8.7c0.1-4.1-1.3-7.4-4.2-8.7c-2.3-1-5.6-0.8-7.6,0.9c-0.6,0.6-1.4,1.6-1.5,1.7
		c0-1.7,0.1-10.7-0.1-11.5h-5.5c-0.2,0.7,0,11.7,0,13.4L-2851-7620.4"/>
	<path id="Path_11597" class="st0" d="M-2868.2-7628.5c-0.8,5.4-5.9,5-7.2,2c-0.4-1.1-0.4-2.9-0.3-4.2c0.2-2.5,2-4.6,4.8-4
		C-2868.5-7634.1-2867.8-7631.4-2868.2-7628.5z M-2881.3-7620.4l5.6,0l0-2.1c0.5,0.3,0.4,0.7,1.6,1.5c3.4,2.4,11.5,1.1,11.7-8.8
		c0.1-4.1-1.3-7.4-4.2-8.7c-2.7-1.2-6.5-0.7-8.4,1.7c-0.2,0.3-0.5,0.6-0.8,0.9l0-11.5l-5.6,0V-7620.4"/>
	<path id="Path_11598" class="st0" d="M-2820.9-7624.4c-3.2,0-4.3-2-4.3-5.2c0-3.1,1.3-5.2,4.3-5.2c3.3,0,3.9,2.7,3.9,5.4
		C-2817-7626.6-2818.1-7624.4-2820.9-7624.4z M-2830.9-7628.2c0.6,5.6,5,8.7,11.2,8.1c5.6-0.6,8.9-4.8,8.4-11
		C-2812.4-7642.6-2832.3-7642.1-2830.9-7628.2"/>
	<path id="Path_11599" class="st1" d="M-2906.3-7628.4c-0.7-7,4.7-7.1,6.8-5.5c2,1.6,2.4,8.6-1.6,9.5c-1.4,0.3-3-0.1-3.7-0.8
		C-2905.7-7626-2906.1-7627-2906.3-7628.4z M-2903.4-7639c-5.7,0.6-9.2,4.4-8.6,10.7c0.5,5.7,4.8,8.9,11,8.3
		c5.7-0.5,9.1-4.5,8.7-10.7C-2892.8-7636.4-2897.3-7639.7-2903.4-7639"/>
	<path id="Path_11601" class="st0" d="M-2857-7647.3c1.8,0,3.2,1.3,3.2,2.9c0,1.6-1.4,2.9-3.2,2.9c-1.8,0-3.2-1.3-3.2-2.9
		C-2860.2-7646-2858.7-7647.3-2857-7647.3z M-2859.6-7638.6h5.4v18.1h-5.4L-2859.6-7638.6"/>
</g>
</svg>
