<?xml version="1.0" encoding="utf-8"?>
<!-- Generator: Adobe Illustrator 26.3.1, SVG Export Plug-In . SVG Version: 6.00 Build 0)  -->
<svg version="1.1" id="Layer_1" xmlns="http://www.w3.org/2000/svg" xmlns:xlink="http://www.w3.org/1999/xlink" x="0px" y="0px"
	 viewBox="0 0 180 60" style="enable-background:new 0 0 180 60;" xml:space="preserve">
<style type="text/css">
	.st0{fill:#F1623F;}
</style>
<path class="st0" d="M20.7,39c0,0.4,0,0.6,0.1,0.8c0.1,0.2,0.2,0.3,0.4,0.5c0.2,0.1,0.5,0.2,0.8,0.3c0.3,0.1,0.6,0.2,1.1,0.3
	c0.5,0.1,1,0.2,1.7,0.3c0.7,0.1,1.5,0.1,2.3,0.1c1.7,0,3.2-0.2,4.3-0.6c1.1-0.4,2-1,2.5-1.8c0.5-0.8,0.8-1.8,0.8-3
	c0-0.7-0.1-1.4-0.3-1.9c-0.2-0.6-0.4-1-0.8-1.5c-0.3-0.4-0.7-0.8-1.2-1.2c-0.5-0.4-1-0.7-1.5-1l-4.5-2.8c-0.4-0.3-0.8-0.5-1.1-0.7
	c-0.3-0.2-0.5-0.5-0.7-0.8c-0.1-0.3-0.2-0.6-0.2-1c0-0.5,0.1-0.9,0.4-1.2c0.3-0.3,0.6-0.5,1.2-0.6c0.5-0.1,1.2-0.2,2-0.2
	c0.7,0,1.4,0,2,0.1c0.6,0.1,1,0.1,1.5,0.3c0.4,0.1,0.8,0.2,1.1,0.3c0.3,0.1,0.6,0.2,0.8,0.1c0.2,0,0.3-0.1,0.4-0.3
	c0.1-0.2,0.1-0.5,0.1-0.8v-0.5c0-0.4,0-0.6-0.1-0.8c-0.1-0.2-0.2-0.3-0.4-0.5c-0.2-0.1-0.5-0.2-0.8-0.3c-0.2-0.1-0.6-0.2-1-0.3
	c-0.4-0.1-0.9-0.2-1.4-0.2C29.4,20,28.7,20,28,20c-2.4,0-4.2,0.4-5.3,1.2c-1.2,0.8-1.7,2.1-1.7,3.8c0,0.8,0.1,1.6,0.4,2.2
	c0.3,0.6,0.6,1.2,1.1,1.7c0.5,0.5,1,0.9,1.7,1.3l4.4,2.6c0.6,0.4,1.2,0.7,1.6,1c0.4,0.3,0.7,0.6,0.9,0.9c0.2,0.3,0.3,0.7,0.3,1.1
	c0,0.6-0.1,1-0.4,1.3c-0.3,0.3-0.7,0.6-1.3,0.7c-0.6,0.1-1.4,0.2-2.3,0.2c-0.8,0-1.6,0-2.2-0.1c-0.6-0.1-1.2-0.2-1.7-0.3
	c-0.5-0.1-0.9-0.2-1.2-0.3c-0.3-0.1-0.6-0.2-0.8-0.1c-0.2,0-0.3,0.2-0.4,0.4c-0.1,0.2-0.1,0.5-0.1,0.8L20.7,39L20.7,39z M38,39.5
	c0,0.4,0,0.7,0.1,0.9c0.1,0.2,0.2,0.4,0.4,0.4c0.2,0.1,0.5,0.1,0.9,0.1h0.4c0.4,0,0.7,0,0.9-0.1c0.2-0.1,0.4-0.2,0.4-0.4
	c0.1-0.2,0.1-0.5,0.1-0.9v-7.6c0-1,0.2-1.8,0.5-2.4c0.3-0.6,0.8-1,1.3-1.3c0.6-0.2,1.3-0.4,2.1-0.4c1.2,0,2,0.2,2.6,0.7
	c0.5,0.5,0.8,1.2,0.8,2.3v8.7c0,0.4,0,0.7,0.1,0.9c0.1,0.2,0.2,0.4,0.4,0.4c0.2,0.1,0.5,0.1,0.9,0.1h0.4c0.4,0,0.7,0,0.9-0.1
	c0.2-0.1,0.4-0.2,0.4-0.4c0.1-0.2,0.1-0.5,0.1-0.9v-9.2c0-1-0.1-1.8-0.4-2.5c-0.3-0.7-0.7-1.3-1.2-1.7c-0.5-0.4-1.1-0.7-1.8-0.9
	c-0.7-0.2-1.4-0.3-2.2-0.3c-1.2,0-2.2,0.2-3,0.5c-0.8,0.3-1.5,0.8-1.9,1.4v-6.7c0-0.4,0-0.7-0.1-0.9c-0.1-0.2-0.2-0.4-0.4-0.4
	c-0.2-0.1-0.5-0.1-0.9-0.1h-0.4c-0.4,0-0.7,0-0.9,0.1c-0.2,0.1-0.4,0.2-0.4,0.4c-0.1,0.2-0.1,0.5-0.1,0.9L38,39.5L38,39.5z M67.8,30
	c0-1-0.2-1.8-0.5-2.5c-0.3-0.7-0.8-1.2-1.5-1.6c-0.6-0.4-1.4-0.7-2.3-0.9c-0.9-0.2-1.9-0.3-2.9-0.3c-0.6,0-1,0-1.4,0
	c-0.4,0-0.7,0.1-1,0.1c-0.3,0-0.5,0.1-0.8,0.1c-0.3,0-0.5,0.1-0.7,0.2c-0.2,0.1-0.3,0.2-0.3,0.4c-0.1,0.2-0.1,0.4-0.1,0.7v0.4
	c0,0.3,0,0.6,0.1,0.7c0.1,0.2,0.2,0.3,0.3,0.3c0.2,0,0.4,0,0.7,0c0.3-0.1,0.8-0.1,1.3-0.2c0.6-0.1,1.2-0.1,2-0.1
	c0.8,0,1.4,0.1,2,0.2s1,0.4,1.3,0.7c0.3,0.4,0.5,0.9,0.5,1.5v1.6H61c-1.3,0-2.5,0.1-3.4,0.5c-1,0.3-1.7,0.8-2.2,1.5
	c-0.5,0.7-0.8,1.6-0.8,2.8c0,1.1,0.3,2,0.8,2.8c0.5,0.7,1.2,1.3,2.2,1.6c1,0.3,2.1,0.5,3.5,0.5c1.6,0,2.8-0.2,3.8-0.5
	c1-0.4,1.7-0.9,2.2-1.7c0.5-0.8,0.7-1.7,0.7-2.9L67.8,30L67.8,30z M64.5,36.1c0,0.5-0.1,1-0.3,1.3c-0.2,0.3-0.4,0.6-0.8,0.8
	c-0.3,0.2-0.7,0.3-1.1,0.3c-0.4,0.1-0.9,0.1-1.4,0.1c-0.6,0-1.1,0-1.5-0.2c-0.5-0.1-0.9-0.3-1.1-0.6c-0.3-0.3-0.4-0.8-0.4-1.4
	c0-0.8,0.3-1.4,0.8-1.7c0.5-0.4,1.3-0.5,2.4-0.5h3.5L64.5,36.1L64.5,36.1z M74.1,30.7c0-0.6,0.1-1.1,0.2-1.5
	c0.2-0.4,0.4-0.7,0.8-0.9c0.4-0.2,1-0.3,1.7-0.3c0.1,0,0.2,0,0.3,0c0.1,0,0.2,0,0.3,0c0.4,0.1,0.6,0.1,0.8,0c0.2,0,0.3-0.2,0.4-0.3
	c0.1-0.2,0.1-0.5,0.1-0.8v-0.4c0-0.4,0-0.6-0.1-0.8c-0.1-0.2-0.2-0.4-0.4-0.5c-0.2-0.1-0.5-0.2-0.8-0.2c-0.1,0-0.2,0-0.3,0
	c-0.1,0-0.2,0-0.3,0c-1.4,0-2.5,0.2-3.4,0.7c-0.9,0.4-1.5,1.1-2,1.9c-0.4,0.8-0.6,1.8-0.6,3v9.1c0,0.4,0,0.7,0.1,0.9
	c0.1,0.2,0.2,0.4,0.4,0.4c0.2,0.1,0.5,0.1,0.9,0.1h0.4c0.4,0,0.7,0,0.9-0.1c0.2-0.1,0.4-0.2,0.4-0.4c0.1-0.2,0.1-0.5,0.1-0.9V30.7
	L74.1,30.7z M94.7,31.4c0-2.2-0.6-3.8-1.7-4.9c-1.1-1.1-2.8-1.7-5-1.7c-1.3,0-2.4,0.2-3.3,0.5c-0.9,0.3-1.6,0.8-2.2,1.4
	c-0.5,0.6-0.9,1.3-1.2,2.2c-0.2,0.8-0.4,1.8-0.4,2.8v2.8c0,1.6,0.3,2.9,0.9,3.9c0.6,1,1.4,1.7,2.6,2.2c1.2,0.5,2.6,0.7,4.4,0.7
	c0.9,0,1.7-0.1,2.4-0.2c0.7-0.1,1.3-0.2,1.7-0.3c0.3-0.1,0.6-0.2,0.8-0.3c0.2-0.1,0.3-0.3,0.4-0.4c0.1-0.2,0.1-0.5,0.1-0.8v-0.4
	c0-0.4,0-0.6-0.1-0.8s-0.2-0.3-0.4-0.3c-0.2,0-0.5,0-0.8,0.1c-0.5,0.1-1.1,0.2-1.8,0.3c-0.7,0.1-1.5,0.2-2.3,0.2
	c-1.1,0-1.9-0.1-2.6-0.3c-0.7-0.2-1.2-0.6-1.5-1c-0.3-0.5-0.5-1.1-0.5-1.9v-0.7H93c0.4,0,0.7,0,0.9-0.1c0.2-0.1,0.4-0.2,0.5-0.4
	c0.1-0.2,0.2-0.5,0.2-0.9c0-0.2,0-0.4,0-0.6C94.7,32,94.7,31.7,94.7,31.4L94.7,31.4z M84.1,30.8c0-1.1,0.3-1.9,0.9-2.4
	c0.6-0.5,1.5-0.8,2.7-0.8c1.2,0,2.1,0.2,2.8,0.8c0.6,0.5,1,1.3,1,2.4v0.8h-7.4L84.1,30.8L84.1,30.8z M98.1,39.5c0,0.4,0,0.7,0.1,0.9
	c0.1,0.2,0.2,0.4,0.4,0.4c0.2,0.1,0.5,0.1,0.9,0.1h0.4c0.4,0,0.7,0,0.9-0.1c0.2-0.1,0.4-0.2,0.4-0.4c0.1-0.2,0.1-0.5,0.1-0.9V20.1
	c0-0.4,0-0.7-0.1-0.9c-0.1-0.2-0.2-0.4-0.4-0.4c-0.2-0.1-0.5-0.1-0.9-0.1h-0.4c-0.4,0-0.7,0-0.9,0.1c-0.2,0.1-0.4,0.2-0.4,0.4
	c-0.1,0.2-0.1,0.5-0.1,0.9V39.5z M103.7,29.8c-0.3,0.4-0.6,0.7-0.8,1c-0.2,0.3-0.3,0.6-0.4,0.8c-0.1,0.3-0.1,0.6-0.1,0.9
	c0,0.3,0,0.6,0.1,0.9c0.1,0.3,0.2,0.6,0.4,0.9c0.2,0.3,0.4,0.7,0.8,1.1l3.6,4.2c0.3,0.4,0.6,0.6,0.9,0.8c0.3,0.2,0.6,0.3,0.9,0.4
	c0.3,0.1,0.7,0.1,1.2,0.1h0.5c0.5,0,0.8,0,1-0.1c0.2-0.1,0.3-0.2,0.2-0.4c-0.1-0.2-0.3-0.5-0.6-0.8l-5.1-5.9
	c-0.2-0.2-0.3-0.4-0.4-0.5c-0.1-0.2-0.2-0.4-0.2-0.6c0-0.2,0.1-0.4,0.2-0.6c0.1-0.2,0.3-0.4,0.5-0.5l4.4-5c0.3-0.4,0.5-0.6,0.6-0.8
	c0.1-0.2,0-0.3-0.2-0.4c-0.2-0.1-0.5-0.1-1-0.1h-0.5c-0.5,0-0.9,0-1.2,0.1c-0.3,0.1-0.6,0.2-0.9,0.4c-0.3,0.2-0.6,0.5-0.9,0.8
	L103.7,29.8L103.7,29.8z M114.7,39.5c0,0.4,0,0.7,0.1,0.9c0.1,0.2,0.2,0.4,0.4,0.4c0.2,0.1,0.5,0.1,0.9,0.1h0.4c0.4,0,0.7,0,0.9-0.1
	c0.2-0.1,0.4-0.2,0.4-0.4c0.1-0.2,0.1-0.5,0.1-0.9v-7.6c0-1,0.2-1.8,0.5-2.4c0.3-0.6,0.8-1,1.3-1.3c0.6-0.2,1.3-0.4,2.1-0.4
	c1.2,0,2,0.2,2.6,0.7c0.5,0.5,0.8,1.2,0.8,2.3v8.7c0,0.4,0,0.7,0.1,0.9c0.1,0.2,0.2,0.4,0.4,0.4c0.2,0.1,0.5,0.1,0.9,0.1h0.4
	c0.4,0,0.7,0,0.9-0.1c0.2-0.1,0.4-0.2,0.4-0.4c0.1-0.2,0.1-0.5,0.1-0.9v-9.2c0-1-0.1-1.8-0.4-2.5c-0.3-0.7-0.7-1.3-1.2-1.7
	c-0.5-0.4-1.1-0.7-1.8-0.9c-0.7-0.2-1.4-0.3-2.2-0.3c-1.2,0-2.2,0.2-3,0.5c-0.8,0.3-1.5,0.8-1.9,1.4v-6.7c0-0.4,0-0.7-0.1-0.9
	c-0.1-0.2-0.2-0.4-0.4-0.4c-0.2-0.1-0.5-0.1-0.9-0.1h-0.4c-0.4,0-0.7,0-0.9,0.1c-0.2,0.1-0.4,0.2-0.4,0.4c-0.1,0.2-0.1,0.5-0.1,0.9
	L114.7,39.5L114.7,39.5z M144.4,30c0-1-0.2-1.8-0.5-2.5c-0.3-0.7-0.8-1.2-1.5-1.6c-0.6-0.4-1.4-0.7-2.3-0.9
	c-0.9-0.2-1.9-0.3-2.9-0.3c-0.6,0-1,0-1.4,0c-0.4,0-0.7,0.1-1,0.1c-0.3,0-0.5,0.1-0.8,0.1c-0.3,0-0.5,0.1-0.7,0.2
	c-0.2,0.1-0.3,0.2-0.3,0.4c-0.1,0.2-0.1,0.4-0.1,0.7v0.4c0,0.3,0,0.6,0.1,0.7c0.1,0.2,0.2,0.3,0.4,0.3c0.2,0,0.4,0,0.7,0
	c0.3-0.1,0.8-0.1,1.3-0.2c0.6-0.1,1.2-0.1,2-0.1c0.8,0,1.4,0.1,2,0.2c0.6,0.1,1,0.4,1.3,0.7c0.3,0.4,0.5,0.9,0.5,1.5v1.6h-3.5
	c-1.3,0-2.5,0.1-3.4,0.5c-1,0.3-1.7,0.8-2.2,1.5c-0.5,0.7-0.8,1.6-0.8,2.8c0,1.1,0.3,2,0.8,2.8c0.5,0.7,1.2,1.3,2.2,1.6
	s2.1,0.5,3.5,0.5c1.6,0,2.8-0.2,3.8-0.5c1-0.4,1.7-0.9,2.2-1.7c0.5-0.8,0.7-1.7,0.7-2.9L144.4,30L144.4,30z M141.1,36.1
	c0,0.5-0.1,1-0.3,1.3c-0.2,0.3-0.4,0.6-0.8,0.8c-0.3,0.2-0.7,0.3-1.1,0.3c-0.4,0.1-0.9,0.1-1.4,0.1c-0.6,0-1.1,0-1.5-0.2
	c-0.5-0.1-0.9-0.3-1.1-0.6c-0.3-0.3-0.4-0.8-0.4-1.4c0-0.8,0.3-1.4,0.8-1.7c0.5-0.4,1.3-0.5,2.4-0.5h3.5L141.1,36.1L141.1,36.1z
	 M150.8,31c0-0.5,0-0.9,0.1-1.3c0.1-0.4,0.3-0.7,0.6-1c0.3-0.3,0.6-0.5,1.1-0.6c0.5-0.1,1.1-0.2,1.8-0.2s1.4,0.1,1.8,0.2
	c0.5,0.1,0.8,0.3,1.1,0.6c0.3,0.3,0.4,0.6,0.5,1c0.1,0.4,0.1,0.8,0.1,1.3v8.5c0,0.4,0,0.7,0.1,0.9c0.1,0.2,0.2,0.4,0.4,0.4
	c0.2,0.1,0.5,0.1,0.9,0.1h0.4c0.4,0,0.7,0,0.9-0.1c0.2-0.1,0.4-0.2,0.4-0.4s0.1-0.5,0.1-0.9V31c0-1.3-0.2-2.4-0.7-3.4
	c-0.5-0.9-1.2-1.6-2.2-2.1c-1-0.5-2.3-0.7-4-0.7c-1.6,0-2.9,0.2-3.9,0.7c-1,0.5-1.8,1.2-2.3,2.1c-0.5,0.9-0.7,2-0.7,3.3v8.5
	c0,0.4,0,0.7,0.1,0.9c0.1,0.2,0.2,0.4,0.4,0.4c0.2,0.1,0.5,0.1,0.9,0.1h0.4c0.4,0,0.7,0,0.9-0.1c0.2-0.1,0.4-0.2,0.4-0.4
	c0.1-0.2,0.1-0.5,0.1-0.9L150.8,31"/>
</svg>
