<?xml version="1.0" encoding="utf-8"?>
<!-- Generator: Adobe Illustrator 26.3.1, SVG Export Plug-In . SVG Version: 6.00 Build 0)  -->
<svg version="1.1" id="Layer_1" xmlns="http://www.w3.org/2000/svg" xmlns:xlink="http://www.w3.org/1999/xlink" x="0px" y="0px"
	 viewBox="0 0 180 60" style="enable-background:new 0 0 180 60;" xml:space="preserve">
<style type="text/css">
	.st0{fill:#F5AB40;}
	.st1{fill:#00A7DC;}
</style>
<path class="st0" d="M94.4,48.5V31.4h-2.6v17.1h0.1H94.4z M91.8,25.4h2.5v2.8h-2.5V25.4z"/>
<path class="st1" d="M97.8,13.5h2.5v24.1h-2.5V13.5z"/>
<path class="st0" d="M85.9,13.5h2.5v24.1h-2.5V13.5z M39.3,20.9h2.5v16.6h-2.5C39.3,37.6,39.3,20.9,39.3,20.9z"/>
<path class="st1" d="M109.7,20.9c-4.7,0-7.5,3.8-7.5,8.6c0,4.8,3,8,7.8,8c2.5,0,4.3-0.5,5.3-1l0.2-0.1v-2.2c-1,0.4-3.1,1-5.1,1
	c-2.9,0-5.4-1.6-5.5-5.5h11.2c0-0.3,0.1-0.7,0.1-1.3C116.3,25.5,114.9,20.9,109.7,20.9 M113.5,27.7H105c0.3-2,1.5-4.7,4.4-4.7
	C112.8,23,113.6,25.9,113.5,27.7 M131.2,26.9c0.1-3.2-1.6-5.9-6.4-5.9c-2.1,0-3.9,0.3-5.2,1.1v2.2c1.3-0.6,3.2-1.2,4.8-1.2
	c3.4,0.2,4.1,2.3,4.1,3.7v1.4c-7.1-2.2-10.3,0.9-10.3,4.9c0.1,2.3,1.7,4.6,5,4.6c2.2,0,4.3-0.5,5.3-1.7v1.7h2.6V26.9 M128.6,33
	c-1.1,1.3-2.3,2.5-4.5,2.5c-1.5,0-3.1-1-3.1-2.9c0-3.1,4-3.2,7.6-2.2V33z"/>
<path class="st0" d="M83.5,26.1c-0.9-3.4-3.2-5-6.6-5.1h-1c-0.1,0-0.3,0-0.4,0.1c-2.2,0.4-3.5,1.8-3.5,1.8v-1.9h-2.5v24.2h2.5v-9.3
	c0,0,1.6,1.5,3.9,1.7h1.4c2.6-0.3,4.5-1.4,5.6-3.8C84.2,31.3,84.3,28.7,83.5,26.1 M81.3,29.7v0.4c-0.1,0.6-0.3,1.3-0.4,1.7
	c-0.2,0.4-1,2.4-3,3c-0.4,0.1-0.7,0.2-1.2,0.2c0,0-3.2,0-4.7-2.6V26c0-0.1,1-2.2,3.7-2.7c0.4-0.1,1.5-0.2,2.6,0.2h0.1l0.2,0.1
	l0.2,0.1l0.2,0.1c0.8,0.5,2.2,2,2.3,4.9C81.4,29.1,81.3,29.4,81.3,29.7"/>
<path class="st1" d="M135.8,22.9v-2h-2.7v16.6h2.7v-9.3c0-1.8,0.4-2.7,0.4-2.8l0.5-0.8c0.3-0.3,0.8-0.7,1.6-1.1
	c0.3-0.1,0.5-0.2,0.9-0.3h0.4c0.4-0.1,0.7-0.1,1.2-0.2h1.3v-2.2C138.2,20.7,136.3,22.5,135.8,22.9z"/>
<path class="st0" d="M37.3,32c-0.2-1.9-1.3-3-3.1-3.5c-0.4-0.2-1-0.3-1.4-0.4c-1-0.3-2-0.4-2.9-0.8c-1.7-0.7-1.3-2.8-0.4-3.5
	c0.6-0.4,1.4-0.7,2.2-0.7h1.5c0.5,0.1,1,0.1,1.5,0.3c1,0.3,1.8,0.6,1.8,0.6v-2.2c-0.1,0-0.5-0.2-0.5-0.2c-1.8-0.5-3.6-0.8-5.5-0.5
	c-2.4,0.4-4.6,2.1-4.3,5.2c0.1,1.3,0.7,2.2,1.9,2.7c0.9,0.4,2,0.6,2.9,0.9c0.8,0.3,1.7,0.5,2.5,0.8c0.5,0.2,0.9,0.6,1,1.2
	c0.4,1.3-0.1,2.3-1.4,3c-1.2,0.5-2.4,0.5-3.7,0.4c-2.2-0.2-3.1-0.9-3.1-0.9v2.1c0,0,0.6,0.3,1.4,0.5l1.1,0.3
	c1.3,0.2,2.5,0.2,3.9-0.1c0.8-0.2,1.6-0.4,2.3-0.8C36.7,35.7,37.6,34,37.3,32 M39.3,15.9h2.5v2.8h-2.5
	C39.3,18.7,39.3,15.9,39.3,15.9z"/>
<path class="st1" d="M157.3,25.3c-0.9-3.5-3.8-4.1-4.4-4.3h-0.3c-1.6-0.2-2.8,0-3.8,0.4l-0.2,0.1c-1.3,0.5-1.8,1.3-1.8,1.3v-1.9
	h-2.7v16.6h2.7V27.3c0-2.2,1.8-4,4-4h0.1c0,0,2-0.2,3.1,1.3l0.1,0.1l0.2,0.3c0.1,0.2,0.2,0.3,0.3,0.4c0,0.1,0.1,0.2,0.1,0.4
	c0.1,0.4,0.3,1.3,0.3,3v8.6h2.7v-9.9C157.6,26.7,157.5,26,157.3,25.3"/>
<path class="st0" d="M61.1,20.9c-3.2,0.1-4.7,1.6-5.1,2.2l-0.2,0.3v-0.2l-0.1-0.1L55.7,23c-0.6-0.9-1.5-1.4-2-1.6
	c-1.3-0.4-2.3-0.4-2.5-0.4h-0.1c-1.6-0.1-2.8,0.5-2.8,0.5c-1.3,0.5-2,1.3-2,1.3v-1.9h-2.5v16.6h2.5v-10c0-0.6,0.1-1.1,0.2-1.3
	c0.4-1.8,2.1-3.1,4-3.1c1.7,0,3.1,0.9,3.7,2.3c0.2,0.4,0.3,1,0.3,1.5v10.4h2.5V27.1c0-2.3,1.8-4,4-4c0.8,0,1.6,0.3,2.2,0.7
	c1.1,0.7,1.8,1.8,1.8,3.2v10.3h2.6v-10c0-1.3-0.3-2.4-0.7-3.3C65.3,21.2,62.3,20.9,61.1,20.9"/>
</svg>
