<?xml version="1.0" encoding="utf-8"?>
<!-- Generator: Adobe Illustrator 26.3.1, SVG Export Plug-In . SVG Version: 6.00 Build 0)  -->
<svg version="1.1" id="Layer_1" xmlns="http://www.w3.org/2000/svg" xmlns:xlink="http://www.w3.org/1999/xlink" x="0px" y="0px"
	 viewBox="0 0 180 60" style="enable-background:new 0 0 180 60;" xml:space="preserve">
<style type="text/css">
	.st0{fill:#EE2C3C;}
</style>
<g transform="translate(-5.000000, -27.000000)">
	<g id="Group" transform="translate(7.000000, 41.000000)">
		<path id="Shape" class="st0" d="M48,9.5v15.6h-5.4v-1.9c-1.1,1.5-2.7,2.4-5,2.4c-3.6,0-5.8-2.1-5.8-6v-10h5.4v8.9
			c0,2.1,0.8,2.9,2.5,2.9c1.8,0,2.8-1,2.8-3.1V9.5H48z"/>
		<path id="Shape_00000117678804326200632100000013324209900313070743_" class="st0" d="M68.2,17.3c0,1.8-0.3,3.3-0.9,4.5
			c-1.1,2.3-3.3,3.7-6.3,3.7c-2.1,0-3.7-0.7-4.9-2.2v8h-5.4V9.5H56v1.9C57.2,9.8,58.8,9,61,9c3,0,5.2,1.4,6.3,3.8
			C67.9,14,68.2,15.5,68.2,17.3z M62.4,17.3c0-1.1-0.1-1.9-0.4-2.4c-0.5-1-1.5-1.6-2.8-1.6c-2,0-3.2,1.2-3.2,3.6v0.8
			c0,2.3,1.1,3.6,3.2,3.6c1.3,0,2.3-0.5,2.8-1.6C62.3,19.1,62.4,18.3,62.4,17.3z"/>
		<path id="Shape_00000062188135267048491960000006567231519424956598_" class="st0" d="M95.6,9.5h5.4v1.4c0.8-1.3,1.8-1.8,3.1-1.8
			c2,0,3.2,1.2,3.2,3c0,1.7-1.3,3-3.1,3c-1.1,0-2.1-0.6-2.5-1.4c-0.5,0.2-0.6,0.4-0.6,1.5v9.8h-5.4L95.6,9.5z"/>
		<path id="Shape_00000123433127322928892200000010611634389934480000_" class="st0" d="M124.4,16.1v9H119v-1.8
			c-1.1,1.4-2.7,2.3-5.4,2.3c-2.6,0-4.5-0.9-5.3-2.6c-0.3-0.6-0.5-1.3-0.5-2.2c0-0.8,0.1-1.5,0.4-2.1c1.2-2.4,4.3-3,8.3-3h2.4v-0.2
			c0-0.9-0.1-1.3-0.3-1.7c-0.3-0.7-1.1-1-2.2-1c-1.3,0-2,0.3-2.3,1c-0.1,0.3-0.2,0.5-0.2,0.9h-5.5c0-0.8,0.2-1.6,0.5-2.2
			c1.1-2.3,3.8-3.3,7.5-3.3c3.9,0,6.2,1,7.3,3.2C124.2,13.3,124.4,14.6,124.4,16.1z M118.7,20.4c0.2-0.4,0.3-0.9,0.3-1.7v-0.2h-2.1
			c-1.6,0-2.8,0.2-3.2,1c-0.1,0.2-0.2,0.4-0.2,0.7c0,0.3,0,0.5,0.2,0.7c0.3,0.7,1.2,0.9,2.1,0.9C117.3,21.8,118.3,21.3,118.7,20.4z"
			/>
		<path id="Shape_00000099646814991050633640000016177549027816406150_" class="st0" d="M144.1,3v22h-5.3v-1.9
			c-1.2,1.6-2.8,2.3-5,2.3c-3,0-5.2-1.4-6.3-3.7c-0.6-1.2-0.9-2.7-0.9-4.5c0-1.8,0.3-3.2,0.9-4.5c1.1-2.4,3.3-3.8,6.3-3.8
			c2.1,0,3.7,0.7,4.9,2.2V3H144.1z M138.8,16.8c0-2.3-1.1-3.6-3.2-3.6c-1.3,0-2.3,0.5-2.8,1.6c-0.3,0.6-0.4,1.3-0.4,2.4
			c0,1.1,0.1,1.9,0.4,2.5c0.5,1,1.5,1.6,2.8,1.6c2,0,3.2-1.2,3.2-3.6V16.8z"/>
		<path id="Shape_00000065057489766881197080000010704580329439087753_" class="st0" d="M83.3,13.3v4h3.5l-0.1,0.5
			c-0.4,1.7-2.6,2.9-4.4,2.9c-2.4,0-5.6-1.1-5.6-6.5c0-4.5,2-6.6,5.2-6.6c1.7,0,3,0.4,3.8,1.5c0.3,0.5,0.6,1.2,0.7,1.8h6.2
			c0,0,0.1-2.8-2.2-5.2c0,0-0.1-0.1-0.1-0.1c-1.9-2-4.7-3.1-8.3-3.1c-7.2,0-11.8,4.6-11.8,11.7c0,8.2,5.9,11.1,10.9,11.1
			c2.8,0,5.4-0.8,6.9-2.4l0.1,2h4.9v-0.2v-3.5v-8.1H83.3z"/>
	</g>
</g>
</svg>
